<svg width="36" height="36" viewBox="0 0 36 36" fill="none" xmlns="http://www.w3.org/2000/svg">
<path d="M34 2H27.8699L25.7366 23.2102C25.6479 23.7949 25.3509 24.3279 24.9003 24.7109C24.4497 25.0939 23.8759 25.3012 23.2845 25.2945H7.83661C7.30191 25.3224 6.77276 25.1745 6.32999 24.8734C5.88722 24.5724 5.55518 24.1346 5.38456 23.6271L2.12334 13.8189C2.00174 13.4501 1.96946 13.0578 2.02914 12.6741C2.08882 12.2904 2.23876 11.9264 2.46662 11.612C2.704 11.2778 3.0214 11.0084 3.3898 10.8284C3.75819 10.6485 4.16582 10.5639 4.57539 10.5822H27.0117" stroke="black" stroke-width="3" stroke-linecap="round" stroke-linejoin="round"/>
<path d="M8.25337 33.8766C8.93048 33.8766 9.47939 33.3277 9.47939 32.6506C9.47939 31.9735 8.93048 31.4246 8.25337 31.4246C7.57625 31.4246 7.02734 31.9735 7.02734 32.6506C7.02734 33.3277 7.57625 33.8766 8.25337 33.8766Z" stroke="black" stroke-width="3" stroke-linecap="round" stroke-linejoin="round"/>
<path d="M24.1918 33.8766C24.869 33.8766 25.4179 33.3277 25.4179 32.6506C25.4179 31.9735 24.869 31.4246 24.1918 31.4246C23.5147 31.4246 22.9658 31.9735 22.9658 32.6506C22.9658 33.3277 23.5147 33.8766 24.1918 33.8766Z" stroke="black" stroke-width="3" stroke-linecap="round" stroke-linejoin="round"/>
</svg>
